nColumns=19
nRows=113
DataType=double
version=3
OpenSimVersion=4.1
endheader
time	ground_force_calcn_r_vx	ground_force_calcn_r_vy	ground_force_calcn_r_vz	ground_force_calcn_r_px	ground_force_calcn_r_py	ground_force_calcn_r_pz	ground_force_calcn_r_mx	ground_force_calcn_r_my	ground_force_calcn_r_mz	ground_force_calcn_l_vx	ground_force_calcn_l_vy	ground_force_calcn_l_vz	ground_force_calcn_l_px	ground_force_calcn_l_py	ground_force_calcn_l_pz	ground_force_calcn_l_mx	ground_force_calcn_l_my	ground_force_calcn_l_mz
0.77	-3.0848	11.4336	-0.15151	-0.000575273	0	-0.000259103	-1.10338e-19	4.0896e-19	-5.41927e-21	0	0	0	0	0	0	0	0	0
0.78	-3.35692	32.7909	-5.1572	1.15983	0	-0.330262	-0.51955	5.07504	-0.79818	0	0	0	0	0	0	0	0	0
0.79	3.29632	122.744	-11.1614	1.02929	0	-0.307033	0.0579	2.156	-0.196051	0	0	0	0	0	0	0	0	0
0.8	12.4736	360.614	-20.0824	1.05486	0	-0.307055	0.0171086	0.494614	-0.0275448	0	0	0	0	0	0	0	0	0
0.81	0.220499	740.996	-2.53399	1.05939	0	-0.306526	0.000751046	2.52392	-0.00863106	0	0	0	0	0	0	0	0	0
0.82	-59.5388	1068.09	68.4662	1.06111	0	-0.30658	-0.317826	5.70158	0.365482	0	0	0	0	0	0	0	0	0
0.83	-150.723	1169.6	116.579	1.06133	0	-0.306917	-0.779706	6.05047	0.603078	0	0	0	0	0	0	0	0	0
0.84	-225.396	1137.52	65.0724	1.05685	0	-0.306332	-0.548873	2.77003	0.158461	0	0	0	0	0	0	0	0	0
0.85	-260.011	1153.53	-15.3053	1.04047	0	-0.303801	0.340695	-1.51148	0.0200548	0	0	0	0	0	0	0	0	0
0.86	-253.226	1264.88	-31.045	1.01071	0	-0.300433	0.754912	-3.77083	0.0925506	0	0	0	0	0	0	0	0	0
0.87	-214.991	1411.32	-10.7867	0.975909	0	-0.297905	0.496996	-3.26256	0.0249357	0	0	0	0	0	0	0	0	0
0.88	-162.502	1525.7	-9.82455	0.943709	0	-0.296651	0.167829	-1.57571	0.0101466	0	0	0	0	0	0	0	0	0
0.89	-117.255	1584.1	-18.0729	0.915568	0	-0.296087	0.0478932	-0.647028	0.0073819	0	0	0	0	0	0	0	0	0
0.9	-82.2768	1593.42	-17.5897	0.889655	0	-0.295539	0.0495901	-0.960388	0.0106017	0	0	0	0	0	0	0	0	0
0.91	-51.7964	1568.33	-18.0761	0.863611	0	-0.294734	0.0563992	-1.70769	0.0196824	0	0	0	0	0	0	0	0	0
0.92	-23.0056	1520.29	-22.3838	0.835133	0	-0.293832	0.0296443	-1.95899	0.028843	0	0	0	0	0	0	0	0	0
0.93	13.8435	1456.03	-25.0937	0.802254	0	-0.293191	-0.0138453	-1.45622	0.0250969	0	0	0	0	0	0	0	0	0
0.94	68.7879	1375.72	-22.0635	0.764377	0	-0.293032	-0.0308104	-0.616191	0.00988236	0	0	0	0	0	0	0	0	0
0.95	138.416	1277.37	-7.53337	0.723261	0	-0.293258	-0.0050811	-0.0468908	0.000276542	0	0	0	0	0	0	0	0	0
0.96	199.028	1162.73	11.5143	0.682327	0	-0.293634	-0.00895327	-0.0523053	-0.000517973	0	0	0	0	0	0	0	0	0
0.97	230.875	1023.81	25.1715	0.644353	0	-0.293961	-0.112218	-0.497628	-0.0122347	0	0	0	0	0	0	0	0	0
0.98	235.258	848.104	34.2649	0.610079	0	-0.294044	-0.287257	-1.03556	-0.0418384	0	0	0	0	0	0	0	0	0
0.99	214.033	645.39	42.2712	0.578804	0	-0.293601	-0.432995	-1.30564	-0.0855158	0	0	0	0	0	0	0	0	0
1	167.375	446.259	43.8447	0.548939	0	-0.291984	-0.360539	-0.961277	-0.094445	0	0	0	0	0	0	0	0	0
1.01	114.509	277.964	30.0913	0.515601	0	-0.287316	0.13616	0.330519	0.0357807	0	0	0	0	0	0	0	0	0
1.02	74.1216	151.324	8.48125	0.460807	0	-0.272155	1.2389	2.52929	0.141759	0	0	0	0	0	0	0	0	0
1.03	44.9229	69.9379	-3.00151	0.29153	0	-0.211524	2.84625	4.43116	-0.190171	0	0	0	0	0	0	0	0	0
1.04	19.6165	29.9276	-1.66674	-0.000575273	0	-0.000259103	-8.32363e-20	-1.26988e-19	7.0723e-21	0	0	0	0	0	0	0	0	0
1.05	1.88793	13.7409	-0.605786	-0.000575273	0	-0.000259103	-0	-0	0	0	0	0	0	0	0	0	0	0
1.06	0	0	0	0	0	0	0	0	0	0	0	0	0	0	0	0	0	0
1.07	0	0	0	0	0	0	0	0	0	0	0	0	0	0	0	0	0	0
1.08	0	0	0	0	0	0	0	0	0	0	0	0	0	0	0	0	0	0
1.09	0	0	0	0	0	0	0	0	0	0	0	0	0	0	0	0	0	0
1.1	0	0	0	0	0	0	0	0	0	0	0	0	0	0	0	0	0	0
1.11	0	0	0	0	0	0	0	0	0	0	0	0	0	0	0	0	0	0
1.12	0	0	0	0	0	0	0	0	0	-2.02658	15.0214	-0.303259	-0.000575273	0	-0.000259103	-0	0	-0
1.13	0	0	0	0	0	0	0	0	0	0.347162	48.7173	-6.06103	1.27991	0	-0.270217	0.00781327	1.09644	-0.13641
1.14	0	0	0	0	0	0	0	0	0	10.1571	173.79	-14.2594	1.06445	0	-0.329773	-0.0188862	-0.323149	0.0265141
1.15	0	0	0	0	0	0	0	0	0	14.4556	463.524	-20.6412	1.0796	0	-0.321058	-0.00413461	-0.132578	0.00590383
1.16	0	0	0	0	0	0	0	0	0	-21.0592	847.252	-11.0577	1.08343	0	-0.317559	-0.0112441	0.452372	-0.00590404
1.17	0	0	0	0	0	0	0	0	0	-101.84	1095.14	-0.0134845	1.08401	0	-0.316246	0.00736384	-0.0791872	9.75036e-07
1.18	0	0	0	0	0	0	0	0	0	-182.136	1119.72	-31.2309	1.07987	0	-0.316727	0.268089	-1.64814	0.0459691
1.19	0	0	0	0	0	0	0	0	0	-224.543	1080.53	-74.496	1.06595	0	-0.318913	0.575543	-2.7696	0.190946
1.2	0	0	0	0	0	0	0	0	0	-231.904	1128.42	-49.3799	1.0391	0	-0.321973	0.508015	-2.47194	0.108173
1.21	0	0	0	0	0	0	0	0	0	-215.222	1253.7	22.2295	1.00452	0	-0.324262	0.19873	-1.15764	-0.0205261
1.22	0	0	0	0	0	0	0	0	0	-180.69	1372.36	39.248	0.971188	0	-0.32541	-0.000621106	0.00471736	0.000134912
1.23	0	0	0	0	0	0	0	0	0	-140.084	1443.68	4.06734	0.942154	0	-0.326099	-0.0422971	0.435908	0.0012281
1.24	0	0	0	0	0	0	0	0	0	-106.503	1477.89	-5.21345	0.915559	0	-0.326781	-0.03583	0.497196	-0.00175392
1.25	0	0	0	0	0	0	0	0	0	-75.5573	1486.32	12.9063	0.889143	0	-0.327685	-0.0357934	0.70411	0.00611405
1.26	0	0	0	0	0	0	0	0	0	-43.1818	1470.32	17.2208	0.861362	0	-0.328931	-0.0335113	1.14104	0.0133642
1.27	0	0	0	0	0	0	0	0	0	-10.2029	1433.49	13.4506	0.830926	0	-0.330315	-0.0115717	1.62579	0.015255
1.28	0	0	0	0	0	0	0	0	0	31.5532	1381.45	13.3424	0.796788	0	-0.33131	0.0477915	2.09239	0.0202088
1.29	0	0	0	0	0	0	0	0	0	89.1654	1314.6	8.41657	0.759014	0	-0.331434	0.178901	2.63761	0.016887
1.3	0	0	0	0	0	0	0	0	0	152.314	1228.78	-3.64207	0.719304	0	-0.330622	0.404321	3.26181	-0.00966794
1.31	0	0	0	0	0	0	0	0	0	200.916	1118.59	-19.5275	0.680032	0	-0.329246	0.669331	3.72646	-0.0650536
1.32	0	0	0	0	0	0	0	0	0	225.326	974.175	-35.104	0.642635	0	-0.327854	0.868452	3.75467	-0.135298
1.33	0	0	0	0	0	0	0	0	0	224.447	791.012	-42.6871	0.607014	0	-0.326898	0.947608	3.33963	-0.180224
1.34	0	0	0	0	0	0	0	0	0	194.516	585.231	-39.3631	0.572142	0	-0.326691	0.917855	2.76151	-0.185741
1.35	0	0	0	0	0	0	0	0	0	141.317	390.042	-33.0326	0.536632	0	-0.327512	0.795435	2.19544	-0.185932
1.36	0	0	0	0	0	0	0	0	0	88.4489	234.361	-27.7559	0.497653	0	-0.329602	0.545959	1.44661	-0.171326
1.37	0	0	0	0	0	0	0	0	0	53.3573	125.857	-16.5943	0.444149	0	-0.331922	0.164957	0.389095	-0.0513022
1.38	0	0	0	0	0	0	0	0	0	30.9467	59.8116	-2.22631	0.315633	0	-0.321193	-0.198146	-0.382963	0.0142547
1.39	0	0	0	0	0	0	0	0	0	12.3523	26.295	1.27769	-0.000575273	0	-0.000259103	-3.86531e-20	-8.22831e-20	-3.99818e-21
1.4	0	0	0	0	0	0	0	0	0	-1.22722	11.5713	-3.59279	-0.000575273	0	-0.000259103	-4.6381e-20	4.37322e-19	-1.35784e-19
1.41	0	0	0	0	0	0	0	0	0	0	0	0	0	0	0	0	0	0
1.42	0	0	0	0	0	0	0	0	0	0	0	0	0	0	0	0	0	0
1.43	0	0	0	0	0	0	0	0	0	0	0	0	0	0	0	0	0	0
1.44	0	0	0	0	0	0	0	0	0	0	0	0	0	0	0	0	0	0
1.45	0	0	0	0	0	0	0	0	0	0	0	0	0	0	0	0	0	0
1.46	0	0	0	0	0	0	0	0	0	0	0	0	0	0	0	0	0	0
1.47	-2.48792	10.793	-0.808222	-0.000575273	0	-0.000259103	-1.0311e-19	4.47309e-19	-3.34963e-20	0	0	0	0	0	0	0	0	0
1.48	-1.78206	33.4638	-5.52544	1.13812	0	-0.326795	-0.303912	5.70688	-0.942303	0	0	0	0	0	0	0	0	0
1.49	6.55826	131.016	-12.4943	1.0443	0	-0.318308	0.0879334	1.75667	-0.167524	0	0	0	0	0	0	0	0	0
1.5	17.7143	391.093	-20.5282	1.05882	0	-0.316687	0.0168933	0.372967	-0.0195767	0	0	0	0	0	0	0	0	0
1.51	3.60434	800.019	3.80873	1.06147	0	-0.315862	0.0161044	3.57454	0.0170176	0	0	0	0	0	0	0	0	0
1.52	-62.7516	1132.53	82.2874	1.06216	0	-0.31605	-0.426844	7.70358	0.559728	0	0	0	0	0	0	0	0	0
1.53	-153.418	1204.42	126.044	1.0614	0	-0.31682	-1.04586	8.21065	0.859257	0	0	0	0	0	0	0	0	0
1.54	-217.255	1128.68	60.1355	1.05572	0	-0.316902	-0.889952	4.62346	0.246335	0	0	0	0	0	0	0	0	0
1.55	-245.698	1121.18	-28.0528	1.03783	0	-0.314925	-0.0311553	0.14217	-0.00355719	0	0	0	0	0	0	0	0	0
1.56	-242.977	1236.29	-36.246	1.00733	0	-0.311811	0.371619	-1.89084	0.055436	0	0	0	0	0	0	0	0	0
1.57	-211.962	1393.03	-7.57835	0.973683	0	-0.309518	0.143781	-0.944943	0.00514066	0	0	0	0	0	0	0	0	0
1.58	-164.517	1510.97	-6.32386	0.943559	0	-0.308682	-0.113606	1.04339	-0.0043669	0	0	0	0	0	0	0	0	0
1.59	-122.884	1570.7	-12.3184	0.917015	0	-0.308647	-0.157303	2.01064	-0.0157687	0	0	0	0	0	0	0	0	0
1.6	-91.6692	1583.86	-6.72165	0.892098	0	-0.308606	-0.0872591	1.50766	-0.00639828	0	0	0	0	0	0	0	0	0
1.61	-64.26	1563	-7.33481	0.867527	0	-0.308158	-0.0146453	0.356218	-0.00167165	0	0	0	0	0	0	0	0	0
1.62	-41.1257	1518.96	-15.5645	0.842563	0	-0.307379	0.0130219	-0.480961	0.0049283	0	0	0	0	0	0	0	0	0
1.63	-17.4293	1460.57	-21.6911	0.81609	0	-0.306662	0.00618225	-0.518073	0.00769396	0	0	0	0	0	0	0	0	0
1.64	15.3496	1392.35	-24.1888	0.786259	0	-0.306444	0.002363	0.214346	-0.00372376	0	0	0	0	0	0	0	0	0
1.65	61.7827	1310.67	-15.1362	0.751533	0	-0.306867	0.0609134	1.29223	-0.0149232	0	0	0	0	0	0	0	0	0
1.66	120.298	1203.26	5.29678	0.71222	0	-0.30773	0.205042	2.0509	0.00902809	0	0	0	0	0	0	0	0	0
1.67	175.201	1065.67	23.247	0.670979	0	-0.308696	0.313501	1.90689	0.0415977	0	0	0	0	0	0	0	0	0
1.68	201.695	906.59	33.8482	0.631549	0	-0.309459	0.179333	0.806073	0.0300954	0	0	0	0	0	0	0	0	0
1.69	194.879	729.795	43.5239	0.596494	0	-0.309701	-0.168125	-0.629603	-0.0375486	0	0	0	0	0	0	0	0	0
1.7	164.85	538.759	49.3969	0.565667	0	-0.309058	-0.424305	-1.3867	-0.127142	0	0	0	0	0	0	0	0	0
1.71	123.047	353.628	39.3344	0.534831	0	-0.306706	-0.22201	-0.638041	-0.07097	0	0	0	0	0	0	0	0	0
1.72	84.6526	200.905	16.538	0.491486	0	-0.298874	0.696956	1.65408	0.13616	0	0	0	0	0	0	0	0	0
1.73	55.1877	97.1217	0.421069	0.39161	0	-0.266883	2.37776	4.18448	0.0181417	0	0	0	0	0	0	0	0	0
1.74	28.5501	41.9685	-1.01247	-0.326302	0	-0.0915779	3.69407	5.43027	-0.131003	0	0	0	0	0	0	0	0	0
1.75	7.33309	18.6163	-0.238525	-0.000575273	0	-0.000259103	-3.09868e-19	-7.86653e-19	1.00791e-20	0	0	0	0	0	0	0	0	0
1.76	0	0	0	0	0	0	0	0	0	0	0	0	0	0	0	0	0	0
1.77	0	0	0	0	0	0	0	0	0	0	0	0	0	0	0	0	0	0
1.78	0	0	0	0	0	0	0	0	0	0	0	0	0	0	0	0	0	0
1.79	0	0	0	0	0	0	0	0	0	0	0	0	0	0	0	0	0	0
1.8	0	0	0	0	0	0	0	0	0	0	0	0	0	0	0	0	0	0
1.81	0	0	0	0	0	0	0	0	0	0	0	0	0	0	0	0	0	0
1.82	0	0	0	0	0	0	0	0	0	0	0	0	0	0	0	0	0	0
1.83	0	0	0	0	0	0	0	0	0	-1.34634	22.6197	-4.12203	-0.000575273	0	-0.000259103	-5.07026e-20	8.5185e-19	-1.55234e-19
1.84	0	0	0	0	0	0	0	0	0	4.65267	80.0109	-9.04479	0.934575	0	-0.397939	0.0788075	1.35523	-0.153202
1.85	0	0	0	0	0	0	0	0	0	17.0719	252.494	-17.9457	1.02343	0	-0.361442	-0.0378845	-0.560314	0.0398236
1.86	0	0	0	0	0	0	0	0	0	16.3533	572.436	-14.2214	1.03316	0	-0.354922	-0.0067582	-0.236566	0.00587715
1.87	0	0	0	0	0	0	0	0	0	-27.6371	903.53	16.7916	1.03578	0	-0.35235	-0.0177184	0.579261	0.0107652
1.88	0	0	0	0	0	0	0	0	0	-105.05	1057.63	23.7004	1.03444	0	-0.352255	-0.0405696	0.408448	0.00915295
1.89	0	0	0	0	0	0	0	0	0	-169.368	1047.88	-28.0895	1.02661	0	-0.354306	0.0672767	-0.416242	0.0111578
